<svg xmlns="http://www.w3.org/2000/svg" viewBox="0 0 500 500" version="1.1" width="500" height="500">
	<path d="M 245.4850442206772 25.25 C 236.11463023496893 42.76937575301348, 231.80136472038856 50.89967801720196, 228.86635789895777 56.575440683532456 L 225.72467264930052 62.65088136706491 218.11233632465024 63.90897283106592 C 213.92555134609262 64.60092313626647, 207.35 65.77847375823352, 203.5 66.52575199099267 C 199.65 67.27303022375183, 192.0101718954583 68.59776886190348, 186.52260421212958 69.46961563132965 C 181.03503652880082 70.34146240075582, 176.23640741141128 71.37996347119918, 175.8589839512639 71.77739578787043 C 175.48156049111648 72.17482810454169, 182.9965843323771 80.6, 192.55903693184297 90.5 C 211.60977212206123 110.2232118456404, 210.93263728834745 109.01273310719037, 209.09827750188498 120.06634050318075 C 208.60233012792173 123.05485322643135, 207.65507589517287 129.55, 206.99326809577644 134.5 C 206.33146029638002 139.45, 205.16223542053177 147.03721052719945, 204.39499059389146 151.36046783822098 C 203.62774576725116 155.68372514924252, 203 159.39622514924253, 203 159.61046783822098 C 203 160.73785365264504, 206.7904023839197 159.06810351563792, 227.1204831838919 148.98489935719527 C 243.0291391167287 141.09460972994344, 249.92103865667247 138.15471832767113, 251.41474183657027 138.6216487433926 C 252.5616338264566 138.98016625934372, 262.85927369842983 143.93696154860584, 274.2983859965108 149.63674938619732 C 285.7374982945917 155.3365372237888, 295.56075316421027 160, 296.12784126232987 160 C 296.7277847166691 160, 296.91432054659384 158.85012964069776, 296.5739554943764 157.25 C 295.2031092971914 150.80535587845284, 291.24335234601784 123.15271374502464, 290.45231225877274 114.5 L 289.90378602026175 108.5 307.37373865108043 90.5 C 316.98221259803074 80.6, 324.54136074347184 72.1927363415273, 324.1718456409496 71.81719187006064 C 323.8023305384273 71.44164739859399, 318.775 70.39985506736674, 313 69.50209780066675 C 307.225 68.60434053396675, 299.575 67.25439291558185, 296 66.50221420425584 C 292.425 65.75003549292983, 286.0744486539074 64.57577613174668, 281.8876636753497 63.892748957182185 L 274.27532735069946 62.65088136706491 271.13364210104226 56.575440683532456 C 269.40571521373073 53.23394830758961, 265.83452433978107 46.45, 263.19766238115403 41.5 C 260.560800422527 36.55, 256.6818695070369 29.2375, 254.5778159022871 25.25 C 252.47376229753732 21.2625, 250.43962990465855 18, 250.05752169588982 18 C 249.67541348712106 18, 247.6177986232754 21.2625, 245.4850442206772 25.25 M 259.9883658691368 61.5 C 263.4649044736747 68.1, 266.3582492040702 73.58100671273121, 266.41802082557126 73.68001491718047 C 266.56291077208726 73.92001666193907, 290.35741484455565 77.99395753485369, 295.75 78.70204641143843 C 298.0875 79.00897856017711, 299.9826684985326 79.5390812693602, 299.96148555229456 79.88005243184529 C 299.94030260605655 80.22102359433038, 294.7474412560837 85.9, 288.4217936634659 92.5 L 276.92061622234274 104.5 277.523253607427 109.5 C 277.85470416922334 112.25, 278.54977720527006 117.65, 279.0678603541975 121.5 C 280.9605170698329 135.56478548912753, 281.26665291505384 139, 280.62740700678944 139 C 280.26858774097445 139, 273.23063146479524 135.6221837462479, 264.9875041708357 131.4937416583287 L 250 123.98748331665742 234.89312057337781 131.55352889837366 C 226.58433688873563 135.71485396831758, 219.5474187738695 138.88075210720328, 219.25552476256422 138.58885809589742 C 218.96363075125896 138.29696408459154, 219.73037578667694 130.8635077068854, 220.9594026190487 122.07006614543933 C 222.18842945142043 113.27662458399325, 223.03784756628653 105.66772013522383, 222.84699842986228 105.16138959261838 C 222.65614929343803 104.65505905001294, 217.55 98.96595569428321, 211.5 92.51893769099678 C 205.45 86.07191968771033, 200.35 80.39274225134615, 200.16666666666666 79.89854338796526 C 199.98333333333332 79.40434452458437, 201.02156430940323 79, 202.4738466134887 79 C 203.92612891757415 79, 207.00112891757414 78.5906506003182, 209.30717994682203 78.09033466737378 C 211.61323097606993 77.59001873442935, 216.425 76.69759764978373, 220 76.10717670149461 C 223.575 75.5167557532055, 228.1113086942822 74.76531782333353, 230.08068598729375 74.43731463511244 C 233.16736645247386 73.92322267457676, 234.02440577718406 73.12760646580496, 236.29273942228232 68.67047260099162 C 239.4215201043483 62.52261407773364, 248.227703262198 46.050606944325565, 249.37934858438265 44.19190843689159 C 249.96398507572846 43.248334097706575, 250.67437168700383 43.8056608693237, 251.92861284891498 46.19190843689159 C 252.8849384054991 48.011358796601215, 256.51182726459894 54.9, 259.9883658691368 61.5 M 180 110.19120221961265 C 173.125 113.51358691255584, 163 118.37524268158538, 157.5 120.99488170634493 C 143.90836526855196 127.46855020685015, 110.923801283022 143.42327240141836, 103.26467494092125 147.2286541105916 C 97.69036505492411 149.99820979278957, 96.96597329288652 150.7068596820162, 96.43152149700552 153.91331520817045 C 96.10271588534518 155.8859918436767, 95.25482145581353 159.525, 94.54731165360184 162 C 93.83980185139016 164.475, 92.73021543601988 168.975, 92.08156406389008 172 C 91.43291269176028 175.025, 90.48944780746112 179.3, 89.98497543211414 181.5 C 89.48050305676718 183.7, 87.24836718744494 193.6, 85.02467350028695 203.5 C 82.80097981312898 213.4, 80.3372488815953 224.2, 79.54971587465658 227.5 C 78.76218286771788 230.8, 77.59258794227866 235.975, 76.9506160403472 239 C 75.8428709633743 244.2197438046142, 72.68141117212033 258.05495661798216, 69.46697198222861 271.75 C 66.18471658520752 285.73397275469387, 64.98070050974819 291.04945535098165, 62.44338033608261 302.757708218745 L 59.7869865344112 315.01541643749 67.71508678982735 324.757708218745 C 78.8306746260293 338.41688211055697, 88.18325539115322 350.1139478891291, 97.5 362.00903999313937 C 101.9 367.62671091308147, 106.66786482730784 373.63531501823775, 108.09525517179519 375.36149356015335 C 111.79669273887096 379.83773380319735, 129.80677127557533 402.38388816212995, 148.85638485834164 426.38885137452496 L 165.2127697166833 447 250 447 L 334.7872302833167 446.99999999999994 351.14361514165836 426.4046799051299 C 372.2331110913011 399.8496114420126, 388.63788246841045 379.3199933026653, 391.91012370318543 375.3877632774228 C 393.33455566643346 373.67603308000537, 398.1 367.66902431835877, 402.5 362.03885491820813 C 411.7184956624448 350.2430157831814, 421.01621670220965 338.60507580220695, 432.2649241977927 324.7821551451499 C 439.54505799277297 315.83599738788877, 440.11827409626534 314.8036767017183, 439.48342659266814 311.7821551451499 C 439.1041417261799 309.97696981531743, 435.6542918914761 294.775, 431.81709362665976 278 C 427.97989536184343 261.225, 424.02762170199185 243.675, 423.03426327143404 239 C 422.04090484087624 234.325, 418.9389656808884 220.6, 416.14106513812766 208.5 C 413.34316459536694 196.4, 410.54013869893913 184.025, 409.91211870162135 181 C 409.2840987043036 177.975, 408.42011057302074 174.15, 407.99214507654835 172.5 C 407.564179580076 170.85, 406.2109398067931 165.1537858497821, 404.9849455803642 159.8417463328491 L 402.7558651686753 150.18349266569822 395.62793258433766 146.67692279910335 C 391.7075696629519 144.74830937247614, 381.75 139.92655713489887, 373.5 135.9619178267094 C 365.25 131.9972785185199, 351.975 125.60701872659331, 344 121.76134051131697 C 336.025 117.91566229604062, 324.55 112.39531862801778, 318.5 109.49391013793284 L 307.5 104.21862197414207 303.25 108.83751516406991 C 298.35421070731326 114.15825112249635, 298.19198845179335 114.73348816765403, 301.25 115.92947727881202 C 302.4875 116.41346385038855, 311.15 120.50675917401863, 320.5 125.02568910910107 C 329.85 129.5446190441835, 347.175 137.905053529771, 359 143.60443241040667 C 370.825 149.3038112910423, 382.9723608484533 155.262751056317, 385.9941352187851 156.8465207776838 L 391.48827043757024 159.72610208925977 393.2915219293055 168.11305104462988 C 394.28331024975984 172.72587297008346, 396.2172003602937 181.225, 397.58905550826955 187 C 400.1567788230224 197.8091602561516, 400.40881651817807 198.9098536152869, 404.0005191605102 215 C 407.4351987159871 230.38671274755634, 410.00868284754534 241.78386983231488, 412.69383963755195 253.5 C 414.08040656255474 259.55, 416.0840247831441 268.325, 417.146324572195 273 C 419.15273525070114 281.8298708318458, 419.6196818295934 283.8635468646416, 422.8865035800866 298 C 423.9668588528923 302.675, 424.9968590680661 307.7316351362264, 425.1753929471394 309.2369669693919 C 425.44753718997805 311.5315868705786, 420.65141680752424 318.0528004516766, 395.5 349.5861575817212 C 366.91306092310236 385.4267691092979, 343.9613480942988 414.13530306483653, 333.0052073879633 427.7560915264954 L 327.9730009757621 434.01218305299085 249.75430234262194 433.7560915264954 L 171.5356037094818 433.5 152.77119897636996 410 C 142.45077637315845 397.075, 123.02654367576318 372.7676516245813, 109.60623742660268 355.9836702768473 C 96.18593117744217 339.1996889291133, 82.71665069135105 322.28625272429497, 79.67450301306684 318.3982564883621 L 74.14332541618647 311.3291724230296 76.08241367113004 302.9145862115148 C 77.148912211349 298.2865637951817, 78.51204877846921 292.25, 79.11160604250827 289.5 C 81.25093243178453 279.6875134814038, 81.78327721417797 277.3564485337695, 84.47829580331549 266 C 87.51358751517064 253.20968595556462, 88.25233632885639 249.99872591552773, 90 242 C 90.66094058741861 238.975, 91.56208881377593 234.925, 92.00255161412736 233 C 92.92967292065475 228.9481061428088, 93.98555723318812 224.20788020465326, 96.90304690249599 211 C 98.05719755240595 205.775, 100.12760395191975 196.775, 101.50395001252664 191 C 102.88029607313355 185.225, 104.7023988528754 177.125, 105.55306730084189 173 C 108.45108628351853 158.94713565300552, 107.87601378378307 159.71686534711307, 119.80881000061987 153.918808545664 C 159.6160736066277 134.57675566016925, 186.92844958224376 121.42898931548002, 195.75 117.36186370348315 C 198.6375 116.030598262773, 201 114.59819887903615, 201 114.17875396184569 C 201 113.75930904465523, 199.0875 111.33136142577993, 196.75 108.78331480878947 L 192.5 104.15050277789773 180 110.19120221961265 M 222.32114806279662 164.4958748419913 C 186.3138675901077 172.83074923102194, 161.72613202765095 196.1720343584175, 152.2656290854615 231 C 149.68255063396546 240.50936415410013, 149.74014954779418 270.64073657091996, 152.3602529278501 280.5 C 160.124464947017 309.7161798648425, 182.86199609438012 333.9449192257218, 211.44834847356736 343.4633031409368 C 226.71865150879623 348.5478485513825, 253.46069927899887 349.7488141456993, 269.2112749172085 346.0573934619914 C 284.93022041244603 342.373385851093, 300.5047537246014 334.29263344821584, 309.24341291949645 325.2869608030669 L 312.98682583899296 321.4291663088841 306.7089688991563 315.2071114346842 L 300.43111195931965 308.9850565604843 294.6020898500873 313.91367979099874 C 274.1853554548115 331.17667683340534, 245.3024135783931 335.4976176869697, 216.72633048392692 325.56403561650166 C 201.6430375032891 320.32080027802743, 185.8790539793003 306.63124067089063, 178.08452500758924 292.0072066214242 C 162.1350338737421 262.0828966009508, 168.1696732944648 222.76814009730958, 192.15020443346128 200.37144794005394 C 201.17964355000817 191.93837499960006, 216.1884685333523 184.30975163242692, 229.5 181.38744862403604 C 237.60754449477386 179.60758567384858, 255.38733833070663 179.65478089108709, 263.24468596667134 181.477021529073 C 275.78480677258426 184.38526980781697, 287.57168319493354 190.29497770531498, 296.54364454950814 198.17246410979936 C 299.15080899320054 200.46158481014317, 300.3059435773136 200.90617288156017, 301.70159307990605 200.15765477168088 C 304.4545321762133 198.68119183084008, 312 190.29755650358678, 312 188.7152776936748 C 312 187.18811619041497, 305.13862614610406 181.1384493234886, 298 176.371490874818 C 278.5407246279752 163.37717582859509, 247.9153196251641 158.57140061724567, 222.32114806279662 164.4958748419913 M 253 260.5 L 253 270 268.75 270.13235088374677 C 277.4125 270.20514386980756, 291.43165110298725 270.54264386980753, 299.90366911774936 270.88235088374677 L 315.3073382354988 271.5 318.5498103150022 277.36210322304873 C 324.21928622588007 287.612015078957, 328.00973268181116 303.39957484932773, 327.99244584272316 316.69155280555196 C 327.9634982075731 338.9496027787295, 318.60046241408753 361.4233650930306, 303.56177399164267 375.33162686591965 C 298.5438621995488 379.9723527588471, 286.062011174541 387.89572832690476, 280.8571594448972 389.7443279806357 C 277.02157266864106 391.1066077831629, 273.5342541977252 393.9421474423075, 264.26603534590754 403.234575792766 L 252.53126351613756 415 256.01563175806876 414.98254092036177 C 261.5450476776123 414.9548347463327, 275.9103825521971 412.31943984430205, 282.9557410220078 410.04023868834463 C 320.4528354474411 397.9097812636865, 345.868838995087 360.6692372167234, 345.9820632222845 317.6915528055518 C 346.03680463867056 296.9127903809131, 338.38241599708493 271.6334720840266, 327.5760899597102 256.9041433264043 C 324.26656120239096 252.39316180217818, 324.0777479197512 252.29633738299555, 317.3521458308454 251.66125236983237 C 313.58346562388044 251.30538351419543, 297.5625 251.0110190173135, 281.75 251.00710904342804 L 253 251 253 260.5" stroke="none" fill="#000000" fill-rule="evenodd" data-fill-layer-id="trace-color"/>
</svg>